<svg width="49" height="49" viewBox="0 0 49 49" fill="none" xmlns="http://www.w3.org/2000/svg">
<path d="M1.09276 10.0901C1.08838 4.84339 5.33812 0.586549 10.5848 0.582171L38.5848 0.558808C43.8315 0.55443 48.0884 4.80417 48.0927 10.0509L48.1161 38.0509C48.1205 43.2976 43.8707 47.5544 38.624 47.5588L10.624 47.5822C5.37734 47.5865 1.1205 43.3368 1.11612 38.0901L1.09276 10.0901Z" fill="white"/>
<path d="M1.09276 10.0901C1.08838 4.84339 5.33812 0.586549 10.5848 0.582171L38.5848 0.558808C43.8315 0.55443 48.0884 4.80417 48.0927 10.0509L48.1161 38.0509C48.1205 43.2976 43.8707 47.5544 38.624 47.5588L10.624 47.5822C5.37734 47.5865 1.1205 43.3368 1.11612 38.0901L1.09276 10.0901Z" stroke="#E9EAEB"/>
<path d="M18.6982 23.3042C18.6357 22.9037 18.6031 22.4933 18.6027 22.0755C18.599 17.6572 22.2013 14.0725 26.6487 14.0688C31.096 14.0651 34.7043 17.6438 34.708 22.062C34.7088 23.0601 34.5256 24.0157 34.1903 24.897C34.1206 25.08 34.0858 25.1715 34.07 25.243C34.0544 25.3138 34.0484 25.3636 34.0467 25.4361C34.045 25.5092 34.055 25.5898 34.075 25.7509L34.4803 29.0208C34.5242 29.3747 34.5461 29.5517 34.4873 29.6805C34.4358 29.7932 34.3443 29.8829 34.2304 29.932C34.1005 29.988 33.924 29.9622 33.571 29.9108L30.3854 29.4466C30.219 29.4223 30.1359 29.4102 30.0601 29.4107C29.9852 29.4112 29.9334 29.4168 29.8601 29.4322C29.786 29.4479 29.6913 29.4834 29.502 29.5545C28.619 29.8861 27.6618 30.0679 26.662 30.0688C26.2438 30.0691 25.8331 30.0378 25.432 29.9771M20.2444 34.0741C23.2092 34.0716 25.6107 31.6072 25.6082 28.5696C25.6056 25.5321 23.2001 23.0717 20.2352 23.0741C17.2703 23.0766 14.8688 25.541 14.8713 28.5786C14.8719 29.1892 14.9695 29.7765 15.1492 30.3251C15.2252 30.557 15.2632 30.673 15.2757 30.7522C15.2887 30.8349 15.291 30.8814 15.2863 30.965C15.2817 31.0451 15.2617 31.1356 15.2218 31.3166L14.6128 34.0788L17.6072 33.6673C17.7707 33.6449 17.8524 33.6336 17.9238 33.6341C17.9989 33.6345 18.0388 33.6385 18.1125 33.6532C18.1825 33.6671 18.2866 33.7037 18.4948 33.777C19.0433 33.97 19.6319 34.0746 20.2444 34.0741Z" stroke="#414651" stroke-width="2" stroke-linecap="round" stroke-linejoin="round"/>
</svg>
