<svg width="49" height="49" viewBox="0 0 49 49" fill="none" xmlns="http://www.w3.org/2000/svg">
<path d="M1.42595 10.6885C1.42157 5.44178 5.67131 1.18494 10.918 1.18056L38.918 1.1572C44.1647 1.15282 48.4216 5.40256 48.4259 10.6493L48.4493 38.6493C48.4537 43.896 44.2039 48.1528 38.9572 48.1572L10.9572 48.1805C5.71053 48.1849 1.45369 43.9352 1.44931 38.6885L1.42595 10.6885Z" fill="white"/>
<path d="M1.42595 10.6885C1.42157 5.44178 5.67131 1.18494 10.918 1.18056L38.918 1.1572C44.1647 1.15282 48.4216 5.40256 48.4259 10.6493L48.4493 38.6493C48.4537 43.896 44.2039 48.1528 38.9572 48.1572L10.9572 48.1805C5.71053 48.1849 1.45369 43.9352 1.44931 38.6885L1.42595 10.6885Z" stroke="#E9EAEB"/>
<path d="M25.9293 14.668L17.0316 25.3633C16.6832 25.7822 16.509 25.9916 16.5064 26.1684C16.5043 26.322 16.5728 26.4681 16.6925 26.5646C16.83 26.6756 17.1025 26.6754 17.6473 26.6749L24.9393 26.6689L23.946 34.6697L32.8436 23.9744C33.192 23.5556 33.3663 23.3461 33.3688 23.1694C33.371 23.0157 33.3024 22.8696 33.1828 22.7731C33.0452 22.6621 32.7728 22.6623 32.2279 22.6628L24.9359 22.6689L25.9293 14.668Z" stroke="#414651" stroke-width="2" stroke-linecap="round" stroke-linejoin="round"/>
</svg>
