<svg width="49" height="49" viewBox="0 0 49 49" fill="none" xmlns="http://www.w3.org/2000/svg">
<path d="M0.759076 10.2868C0.754698 5.04014 5.00444 0.783296 10.2511 0.778918L38.2511 0.755555C43.4978 0.751177 47.7547 5.00092 47.7591 10.2476L47.7824 38.2476C47.7868 43.4943 43.5371 47.7512 38.2904 47.7555L10.2904 47.7789C5.04366 47.7833 0.786817 43.5335 0.782439 38.2868L0.759076 10.2868Z" fill="white"/>
<path d="M0.759076 10.2868C0.754698 5.04014 5.00444 0.783296 10.2511 0.778918L38.2511 0.755555C43.4978 0.751177 47.7547 5.00092 47.7591 10.2476L47.7824 38.2476C47.7868 43.4943 43.5371 47.7512 38.2904 47.7555L10.2904 47.7789C5.04366 47.7833 0.786817 43.5335 0.782439 38.2868L0.759076 10.2868Z" stroke="#E9EAEB"/>
<path d="M23.2632 15.2681L20.0632 15.2707C18.3831 15.2721 17.543 15.2728 16.9015 15.6004C16.3373 15.8885 15.8787 16.3478 15.5916 16.9125C15.2651 17.5545 15.2658 18.3946 15.2672 20.0747L15.2742 28.4747C15.2756 30.1549 15.2763 30.995 15.6039 31.6364C15.8919 32.2007 16.3513 32.6592 16.916 32.9464C17.558 33.2728 18.3981 33.2721 20.0782 33.2707L28.4782 33.2637C30.1584 33.2623 30.9985 33.2616 31.6399 32.9341C32.2042 32.646 32.6627 32.1867 32.9499 31.622C33.2763 30.98 33.2756 30.1399 33.2742 28.4597L33.2716 25.2597M24.2674 20.2672L28.2674 20.2639L28.2707 24.2639M27.7636 15.7643L27.7624 14.2643M31.7039 16.8217L32.7636 15.7601M32.7781 20.7601L34.2781 20.7589M15.2719 25.6218C15.9239 25.722 16.5919 25.7736 17.272 25.7731C21.6583 25.7694 25.5355 23.5938 27.8871 20.2642" stroke="#414651" stroke-width="2" stroke-linecap="round" stroke-linejoin="round"/>
</svg>
